<svg width="20" height="20" viewBox="0 0 20 20" fill="none" xmlns="http://www.w3.org/2000/svg">
<path d="M12.9371 5.6668C13.2296 5.6843 13.5217 5.71641 13.8121 5.76153C14.5536 5.86182 14.6608 5.96653 14.7672 6.70391C14.9321 7.86553 14.8843 9.0476 14.6266 10.1922C14.5961 10.3095 14.5622 10.4261 14.527 10.5418V10.5408C14.2641 11.4037 13.8703 12.2188 13.361 12.9578L13.0885 13.3328C12.9941 13.4559 12.8959 13.5762 12.7946 13.6941L12.7281 13.7684C12.6245 13.8863 12.5181 14.0035 12.4078 14.116C12.0669 14.4499 11.6999 14.7539 11.3121 15.0262C11.157 15.1351 10.9983 15.2392 10.8365 15.3377C10.1895 15.732 9.4917 16.0418 8.76038 16.2576C8.66915 16.2845 8.57723 16.3108 8.48499 16.3348C8.34211 16.3669 8.19825 16.3951 8.05432 16.4207C7.47779 16.5233 6.8936 16.574 6.3092 16.5711C6.01706 16.5697 5.72463 16.5551 5.43323 16.5272L4.9967 16.4754C4.53786 16.4085 4.32358 16.3412 4.20276 16.1199C4.19055 16.0975 4.17903 16.0734 4.16858 16.0477C4.1595 16.0253 4.15116 16.0014 4.14319 15.9764C4.10599 15.8589 4.08009 15.7099 4.05432 15.5193C4.03181 15.3742 4.01232 15.2286 3.9967 15.0828C3.98108 14.9369 3.96831 14.7906 3.95959 14.6443C3.90722 13.7665 3.97929 12.8838 4.17444 12.0232C4.17869 12.0069 4.18376 11.9907 4.18811 11.9744C4.21708 11.8656 4.24781 11.7575 4.28088 11.6502C4.28973 11.6215 4.29909 11.5929 4.30823 11.5643C4.41435 11.2321 4.53992 10.9074 4.6842 10.5916C4.70711 10.5415 4.73068 10.4918 4.75452 10.4422C4.77758 10.3941 4.8009 10.3462 4.82483 10.2986C4.84237 10.2638 4.85957 10.2288 4.87756 10.1941C5.06724 9.82902 5.28269 9.47764 5.52209 9.14239C5.53223 9.12818 5.54313 9.11454 5.55334 9.10039C5.71658 8.87467 5.89011 8.65601 6.07483 8.4461C6.08761 8.43156 6.10101 8.41758 6.11389 8.40313C6.20515 8.30079 6.29793 8.19958 6.39417 8.10137C6.48297 8.01436 6.57445 7.93042 6.66663 7.84746C6.75819 7.76508 6.85116 7.68454 6.94592 7.60625C7.05146 7.51902 7.15888 7.43439 7.26819 7.35235C7.28606 7.33894 7.30393 7.32557 7.3219 7.31231C7.36836 7.27798 7.41444 7.24315 7.46155 7.20977C7.48233 7.19505 7.50314 7.18036 7.52405 7.16582C7.66177 7.07002 7.80208 6.97809 7.94495 6.89043C7.95951 6.8815 7.97428 6.87291 7.98889 6.86406C8.28796 6.68296 8.59776 6.51993 8.91663 6.37578C8.9449 6.36301 8.97317 6.35018 9.00159 6.3377C9.33653 6.19055 9.68123 6.06421 10.0338 5.95977V5.96074C10.1276 5.93295 10.2221 5.90632 10.317 5.88164C10.8906 5.75176 11.4741 5.67616 12.0592 5.65606C12.3516 5.64603 12.6447 5.6493 12.9371 5.6668ZM13.0289 14.6844C14.3184 15.3738 15.7991 15.6447 17.2614 15.4412C16.4968 16.0892 15.5468 16.4799 14.5475 16.5564C13.548 16.6329 12.5493 16.3913 11.6949 15.867C11.7019 15.8338 11.7109 15.8004 11.7184 15.7674C12.172 15.4554 12.6014 15.1057 12.9977 14.7176L13.0035 14.7107L13.0104 14.7049C13.0167 14.6984 13.0226 14.6909 13.0289 14.6844ZM14.61 12.5242C15.4412 12.9049 16.3448 13.1079 17.2623 13.1131C17.7878 13.1099 18.3117 13.0435 18.8209 12.9139C18.67 13.5396 18.3924 14.1284 18.0074 14.6443C17.1046 14.8999 16.1558 14.95 15.2311 14.7908C14.6147 14.6847 14.0205 14.4847 13.4655 14.2039C13.9064 13.6851 14.2896 13.1217 14.61 12.5242ZM9.70862 8.575L10.4567 9.32891H10.4557L10.5104 9.3836L9.95862 9.93731L9.401 10.4998L8.59143 9.69121L7.98401 10.2986L8.7926 11.1082L8.0719 11.824L7.67737 12.2176H7.67639L6.89807 11.4461V11.4451L6.8678 11.4158L6.26038 12.0242L7.06213 12.8328L6.25745 13.6404V13.6414L6.86584 14.2488L7.67444 13.4471L8.48303 14.2488L9.09143 13.6404L8.2887 12.8318L9.39905 11.7166L10.2076 12.5252L10.8151 11.9168L10.0094 11.1082L11.1256 9.99883L11.2496 10.1229H11.2506L11.5983 10.4686L11.9342 10.8016L12.5416 10.1941L11.7399 9.38457L12.5416 8.57598L11.9342 7.96856L11.1256 8.77031L10.317 7.9666L9.70862 8.575ZM5.65491 3.43145C6.7933 3.38941 7.90877 3.75954 8.79651 4.47344C9.07832 4.69692 9.3319 4.95024 9.55334 5.22735C8.14758 5.68437 6.86383 6.46164 5.80432 7.49981L5.7926 7.51153C4.62028 8.70794 3.78074 10.1903 3.35901 11.8113L3.35608 11.824L3.35315 11.8377C3.32234 11.9736 3.29531 12.1101 3.27014 12.2469C3.12025 12.1524 2.9742 12.0507 2.83459 11.9393C1.94491 11.2287 1.33795 10.2235 1.12366 9.10528C1.8133 9.08213 2.49037 8.90995 3.10706 8.60039C3.72352 8.29093 4.26541 7.85124 4.69592 7.31231C5.12652 6.77314 5.43568 6.14624 5.6012 5.47637C5.76662 4.80663 5.7848 4.10899 5.65491 3.43145ZM15.7867 7.30059C16.7142 7.63119 17.517 8.24027 18.0846 9.04473C18.6521 9.84924 18.9573 10.8102 18.9576 11.7947C18.9576 11.8331 18.9509 11.8716 18.9508 11.91C18.3932 12.0923 17.8099 12.1847 17.2233 12.1834C17.3789 10.4329 16.8655 8.68803 15.7867 7.30059ZM15.7008 8.26153C15.9192 8.61506 16.1039 8.99019 16.2487 9.38262C16.5735 10.2638 16.6965 11.2074 16.609 12.1424V12.1414C16.0541 12.0739 15.5142 11.9203 15.0065 11.6902C15.1806 11.2736 15.3277 10.8441 15.442 10.4041L15.4459 10.3904L15.4489 10.3777C15.6056 9.68162 15.6875 8.97207 15.7008 8.26153ZM4.70959 3.56328C4.822 4.11234 4.81227 4.6795 4.68127 5.22442C4.55027 5.76924 4.3014 6.27871 3.95178 6.7166C3.60195 7.15464 3.15946 7.51125 2.65686 7.75957C2.15437 8.00777 1.60294 8.14238 1.0426 8.1541C1.05073 7.08867 1.41701 6.05635 2.08264 5.22442C2.74675 4.39137 3.67243 3.80683 4.70959 3.56328Z" fill="#F8FAFC"/>
</svg>
