<svg preserveAspectRatio="none" width="100%" height="100%" overflow="visible" style="display: block;" viewBox="0 0 28 28" fill="none" xmlns="http://www.w3.org/2000/svg">
<g id="Icon / Social Media">
<g id="Vector" filter="url(#filter0_i_0_164)">
<path d="M19.9179 0H15.1991V19.0724C15.1991 21.3449 13.3842 23.2116 11.1256 23.2116C8.86706 23.2116 7.05214 21.3449 7.05214 19.0724C7.05214 16.8406 8.82673 15.0145 11.0047 14.9333V10.1449C6.20517 10.2261 2.33333 14.1623 2.33333 19.0724C2.33333 24.0232 6.28583 28 11.166 28C16.0461 28 19.9986 23.9826 19.9986 19.0724V9.29273C21.7732 10.5913 23.9511 11.3623 26.25 11.4029V6.61449C22.7008 6.49276 19.9179 3.57101 19.9179 0Z" fill="var(--fill-0, #282E38)"/>
</g>
</g>
<defs>
<filter id="filter0_i_0_164" x="2.33333" y="0" width="23.9167" height="28" filterUnits="userSpaceOnUse" color-interpolation-filters="sRGB">
<feFlood flood-opacity="0" result="BackgroundImageFix"/>
<feBlend mode="normal" in="SourceGraphic" in2="BackgroundImageFix" result="shape"/>
<feColorMatrix in="SourceAlpha" type="matrix" values="0 0 0 0 0 0 0 0 0 0 0 0 0 0 0 0 0 0 127 0" result="hardAlpha"/>
<feOffset/>
<feGaussianBlur stdDeviation="0.855556"/>
<feComposite in2="hardAlpha" operator="arithmetic" k2="-1" k3="1"/>
<feColorMatrix type="matrix" values="0 0 0 0 0.96736 0 0 0 0 0.980866 0 0 0 0 1 0 0 0 0.99 0"/>
<feBlend mode="normal" in2="shape" result="effect1_innerShadow_0_164"/>
</filter>
</defs>
</svg>
