<svg preserveAspectRatio="none" width="100%" height="100%" overflow="visible" style="display: block;" viewBox="0 0 28 28" fill="none" xmlns="http://www.w3.org/2000/svg">
<g id="Icon / Social Media" clip-path="url(#clip0_0_156)">
<g id="Vector" filter="url(#filter0_i_0_156)">
<path fill-rule="evenodd" clip-rule="evenodd" d="M26.5376 5.6398C26.972 6.07702 27.284 6.62068 27.4423 7.21637C28.0278 9.415 28.0278 14 28.0278 14C28.0278 14 28.0278 18.585 27.4423 20.7836C27.284 21.3793 26.972 21.923 26.5376 22.3602C26.1032 22.7974 25.5615 23.1129 24.9669 23.275C22.7778 23.8636 14.0278 23.8636 14.0278 23.8636C14.0278 23.8636 5.27777 23.8636 3.08868 23.275C2.49402 23.1129 1.95237 22.7974 1.51794 22.3602C1.08351 21.923 0.771527 21.3793 0.613226 20.7836C0.0277711 18.585 0.027771 14 0.027771 14C0.027771 14 0.0277711 9.415 0.613226 7.21637C0.771527 6.62068 1.08351 6.07702 1.51794 5.6398C1.95237 5.20257 2.49402 4.88712 3.08868 4.725C5.27777 4.13637 14.0278 4.13637 14.0278 4.13637C14.0278 4.13637 22.7778 4.13637 24.9669 4.725C25.5615 4.88712 26.1032 5.20257 26.5376 5.6398ZM18.4823 14L11.1642 9.83663V18.1634L18.4823 14Z" fill="var(--fill-0, #282E38)"/>
</g>
</g>
<defs>
<filter id="filter0_i_0_156" x="0.027771" y="4.13637" width="28" height="19.7273" filterUnits="userSpaceOnUse" color-interpolation-filters="sRGB">
<feFlood flood-opacity="0" result="BackgroundImageFix"/>
<feBlend mode="normal" in="SourceGraphic" in2="BackgroundImageFix" result="shape"/>
<feColorMatrix in="SourceAlpha" type="matrix" values="0 0 0 0 0 0 0 0 0 0 0 0 0 0 0 0 0 0 127 0" result="hardAlpha"/>
<feOffset/>
<feGaussianBlur stdDeviation="0.855556"/>
<feComposite in2="hardAlpha" operator="arithmetic" k2="-1" k3="1"/>
<feColorMatrix type="matrix" values="0 0 0 0 0.96736 0 0 0 0 0.980866 0 0 0 0 1 0 0 0 0.99 0"/>
<feBlend mode="normal" in2="shape" result="effect1_innerShadow_0_156"/>
</filter>
<clipPath id="clip0_0_156">
<rect width="28" height="28" fill="white"/>
</clipPath>
</defs>
</svg>
