<svg preserveAspectRatio="none" width="100%" height="100%" overflow="visible" style="display: block;" viewBox="0 0 20 20" fill="none" xmlns="http://www.w3.org/2000/svg">
<g id="sport/allsports">
<path id="Union" d="M12.0582 5.6566C12.643 5.63653 13.2302 5.6719 13.8111 5.76207C14.5528 5.86239 14.6607 5.96677 14.7671 6.70446C14.7877 6.84922 14.804 6.99472 14.8179 7.14L14.8189 7.14098C14.9167 8.16101 14.8521 9.19126 14.6265 10.1927C14.5962 10.3094 14.5619 10.4254 14.5269 10.5404C14.2642 11.4029 13.8708 12.2176 13.3619 12.9564L13.0894 13.3314C12.9947 13.455 12.8962 13.5763 12.7945 13.6947L12.7281 13.7689C12.6243 13.887 12.5181 14.0039 12.4078 14.1166C12.1349 14.3838 11.845 14.6317 11.5416 14.8597C11.4659 14.9166 11.3895 14.9733 11.3121 15.0277C11.1571 15.1365 10.998 15.2398 10.8365 15.3382C10.7556 15.3875 10.6738 15.4362 10.5914 15.4828C9.93181 15.8557 9.22336 16.1431 8.48394 16.3353C7.3395 16.593 6.15712 16.6408 4.99566 16.4759C4.26107 16.3688 4.15357 16.2613 4.05328 15.5199C3.89553 14.5031 3.90694 13.4676 4.08648 12.4564C4.10063 12.3768 4.11894 12.2975 4.13531 12.2181C4.14826 12.1535 4.15978 12.0881 4.17437 12.0238C4.29456 11.5619 4.45194 11.1122 4.6441 10.6791C4.72087 10.5059 4.80342 10.335 4.89117 10.1673C4.9355 10.0827 4.98081 9.99854 5.02789 9.91539C5.05469 9.86802 5.08321 9.82164 5.11089 9.77477C5.13109 9.7406 5.15078 9.70612 5.17144 9.67223L5.20855 9.61168C5.22468 9.58567 5.24195 9.56038 5.25836 9.53453C5.29685 9.47395 5.33556 9.41351 5.37554 9.35387C5.38976 9.33264 5.40411 9.3115 5.41851 9.29039C5.45254 9.24059 5.48697 9.19106 5.52203 9.14196C5.55744 9.0923 5.59396 9.04343 5.63043 8.99449C5.65654 8.95948 5.68288 8.92463 5.70953 8.89C5.7402 8.85011 5.77092 8.81025 5.8023 8.77086C5.83402 8.73108 5.86655 8.69195 5.89898 8.6527C6.0559 8.46265 6.21984 8.2778 6.39312 8.10094C6.43747 8.05749 6.48367 8.01545 6.52886 7.97301C6.55539 7.9481 6.58115 7.92237 6.60796 7.89781C6.65016 7.85918 6.693 7.82132 6.73589 7.78356C6.77142 7.75228 6.80732 7.72146 6.84332 7.69078C6.88468 7.65554 6.92634 7.62072 6.96832 7.58629C6.9991 7.56103 7.02998 7.53592 7.06109 7.5111C7.1563 7.43514 7.25297 7.36123 7.35113 7.28942C7.38008 7.26823 7.40884 7.24676 7.43804 7.22594C7.48092 7.19537 7.52452 7.16587 7.56793 7.1361C7.61223 7.10569 7.65688 7.07582 7.70171 7.04625C7.74771 7.01593 7.79384 6.98585 7.84039 6.95641C7.87634 6.93366 7.91251 6.91125 7.94879 6.88903C8.03107 6.83863 8.11391 6.7892 8.19781 6.74156C8.25026 6.71177 8.30295 6.68237 8.35601 6.65367C8.39226 6.63407 8.42886 6.61515 8.46539 6.59606C8.49364 6.58129 8.52193 6.56657 8.55035 6.55211L8.71246 6.47106C8.7257 6.46466 8.73922 6.45785 8.7525 6.45153C8.80732 6.42538 8.86313 6.40134 8.91851 6.37633C8.99996 6.33957 9.082 6.30416 9.16461 6.26989C9.21529 6.24884 9.26585 6.22748 9.31695 6.20739C9.36105 6.19005 9.40536 6.17323 9.44976 6.1566C9.49845 6.13837 9.54721 6.12027 9.59625 6.10289C9.6495 6.08403 9.70275 6.06507 9.7564 6.04723C9.84822 6.01668 9.9408 5.98785 10.0337 5.96031C10.036 5.95964 10.0383 5.95903 10.0406 5.95836C10.1317 5.93145 10.2238 5.90616 10.316 5.88219C10.4591 5.84976 10.6034 5.82087 10.7476 5.79528C10.8923 5.76961 11.0377 5.74668 11.1832 5.72789C11.4736 5.6904 11.7658 5.66666 12.0582 5.6566ZM13.0279 14.6849C14.3174 15.3747 15.7988 15.6452 17.2613 15.4418C16.4966 16.0898 15.5459 16.4805 14.5464 16.557C13.5471 16.6333 12.5481 16.3918 11.6939 15.8675C11.7008 15.8346 11.7099 15.8017 11.7173 15.7689C12.1712 15.4569 12.6002 15.1064 12.9966 14.7181L13.0035 14.7123L13.0093 14.7054C13.0157 14.6989 13.0216 14.6914 13.0279 14.6849ZM14.6089 12.5257C15.4399 12.9065 16.3438 13.1084 17.2613 13.1136C17.7867 13.1105 18.3107 13.044 18.8199 12.9144C18.6689 13.5401 18.3923 14.129 18.0074 14.6449C17.1044 14.9004 16.1549 14.9506 15.23 14.7914C14.614 14.6852 14.02 14.4851 13.4654 14.2045C13.906 13.686 14.2887 13.1227 14.6089 12.5257ZM9.70855 8.57457L10.2281 9.09996L10.5103 9.38414L9.66558 10.2328L9.40093 10.4994L9.39996 10.5004L8.59136 9.69176L8.28668 9.99449L7.98394 10.2992L8.79254 11.1078L7.67632 12.2181L6.96148 11.5091L6.898 11.4466V11.4457L6.86773 11.4164L6.25933 12.0248L6.88726 12.6576V12.6566L7.04644 12.8168H7.04449L7.06109 12.8334L6.2564 13.641L6.8648 14.2494L7.67339 13.4476L8.48199 14.2494L9.09039 13.641L8.28863 12.8324L9.398 11.7172L10.2066 12.5257L10.815 11.9173L10.0093 11.1088L11.1246 9.99938L11.2486 10.1234H11.2496L11.5972 10.4691L11.9332 10.8021L12.5416 10.1947L12.3482 9.99938L11.9312 9.57848H11.9302L11.7398 9.3861L12.5416 8.57653L11.9332 7.9691L11.1246 8.77086L10.316 7.96715L9.70855 8.57457ZM5.65484 3.43102C6.79309 3.38899 7.90876 3.75928 8.79644 4.47301C9.07811 4.69639 9.3319 4.94997 9.55328 5.22692C8.14757 5.68391 6.86374 6.46129 5.80425 7.49938L5.79254 7.5111C4.62035 8.70737 3.78072 10.1901 3.35894 11.8109L3.35601 11.8246L3.35308 11.8373C3.3223 11.973 3.29522 12.1098 3.27007 12.2464C3.12026 12.152 2.97407 12.0503 2.83453 11.9388C1.94494 11.2283 1.33785 10.223 1.12359 9.10485C1.81323 9.0817 2.4903 8.90952 3.10699 8.59996C3.72341 8.29048 4.26538 7.8508 4.69586 7.31188C5.12629 6.77284 5.43562 6.14658 5.60113 5.47692C5.76656 4.80716 5.78474 4.10857 5.65484 3.43102ZM15.7867 7.30114C16.714 7.63178 17.517 8.24086 18.0845 9.04528C18.652 9.84984 18.9564 10.8107 18.9566 11.7953C18.9565 11.8338 18.9508 11.872 18.9507 11.9105C18.3932 12.0928 17.8098 12.1852 17.2232 12.1839C17.3789 10.4334 16.8654 8.68863 15.7867 7.30114ZM15.6998 8.26305C15.9183 8.61649 16.1039 8.99077 16.2486 9.38317C16.5735 10.2644 16.6965 11.2078 16.6089 12.1429L16.608 12.142C16.0533 12.0744 15.5129 11.9217 15.0054 11.6918C15.1798 11.2748 15.3265 10.845 15.441 10.4047L15.4449 10.392L15.4478 10.3783C15.6045 9.68241 15.6864 8.97334 15.6998 8.26305ZM4.70953 3.56285C4.82195 4.11184 4.81213 4.67912 4.68121 5.22399C4.5502 5.76895 4.30145 6.27917 3.95171 6.71715C3.60192 7.15512 3.15931 7.51084 2.65679 7.75914C2.15428 8.00737 1.6029 8.14195 1.04254 8.15367C1.05077 7.08859 1.41725 6.0567 2.08257 5.22496C2.74668 4.392 3.67242 3.80638 4.70953 3.56285Z" fill="var(--fill-0, #282E38)"/>
</g>
</svg>
