<svg preserveAspectRatio="none" width="100%" height="100%" overflow="visible" style="display: block;" viewBox="0 0 14 14" fill="none" xmlns="http://www.w3.org/2000/svg">
<g id="arrow-right">
<path id="Vector" d="M8.4175 10.9783C8.30667 10.9783 8.19583 10.9375 8.10833 10.85C7.93917 10.6808 7.93917 10.4008 8.10833 10.2317L11.34 7L8.10833 3.76833C7.93917 3.59917 7.93917 3.31917 8.10833 3.15C8.2775 2.98083 8.5575 2.98083 8.72667 3.15L12.2675 6.69083C12.4367 6.86 12.4367 7.14 12.2675 7.30917L8.72667 10.85C8.63917 10.9375 8.52833 10.9783 8.4175 10.9783Z" fill="var(--fill-0, #A4D8FF)"/>
<path id="Vector_2" d="M11.8592 7.4375H2.04167C1.8025 7.4375 1.60417 7.23917 1.60417 7C1.60417 6.76083 1.8025 6.5625 2.04167 6.5625H11.8592C12.0983 6.5625 12.2967 6.76083 12.2967 7C12.2967 7.23917 12.0983 7.4375 11.8592 7.4375Z" fill="var(--fill-0, #A4D8FF)"/>
<g id="Vector_3" opacity="0">
</g>
</g>
</svg>
