<svg width="20" height="20" viewBox="0 0 20 20" fill="none" xmlns="http://www.w3.org/2000/svg">
<g clip-path="url(#clip0_243_8664)">
<path d="M10 14.9998C8.75 16.2498 7.75 16.6665 6.25 16.6665C5.03443 16.6665 3.86864 16.1836 3.0091 15.3241C2.5835 14.8985 2.24589 14.3932 2.01556 13.8371C1.78522 13.2811 1.66667 12.6851 1.66667 12.0832C1.66667 10.1665 2.91667 8.74984 4.16667 7.49984L10 1.6665L15.8333 7.49984C17.0833 8.74984 18.3333 10.1665 18.3333 12.0832C18.3333 12.6851 18.2148 13.2811 17.9845 13.8371C17.7541 14.3932 17.4165 14.8985 16.9909 15.3241C16.5653 15.7497 16.06 16.0873 15.504 16.3176C14.9479 16.548 14.3519 16.6665 13.75 16.6665C12.25 16.6665 11.25 16.2498 10 14.9998ZM10 14.9998V18.3332" stroke="white" stroke-width="1.5" stroke-linecap="round" stroke-linejoin="round"/>
</g>
<defs>
<clipPath id="clip0_243_8664">
<rect width="20" height="20" fill="white"/>
</clipPath>
</defs>
</svg>
