<svg width="20" height="20" viewBox="0 0 20 20" fill="none" xmlns="http://www.w3.org/2000/svg">
<path d="M3.33331 11.6667C3.17561 11.6673 3.021 11.623 2.88743 11.5392C2.75387 11.4554 2.64683 11.3354 2.57876 11.1931C2.51069 11.0509 2.48438 10.8922 2.50289 10.7356C2.52139 10.579 2.58396 10.4309 2.68331 10.3084L10.9333 1.80839C10.9952 1.73696 11.0795 1.68868 11.1725 1.6715C11.2654 1.65431 11.3614 1.66923 11.4447 1.71381C11.5281 1.75838 11.5938 1.82997 11.6311 1.91681C11.6684 2.00365 11.675 2.10059 11.65 2.19172L10.05 7.20839C10.0028 7.33466 9.98695 7.47049 10.0038 7.60423C10.0206 7.73797 10.0697 7.86562 10.1467 7.97624C10.2237 8.08686 10.3265 8.17715 10.446 8.23935C10.5656 8.30156 10.6985 8.33383 10.8333 8.33339H16.6666C16.8243 8.33285 16.9789 8.37707 17.1125 8.46091C17.2461 8.54474 17.3531 8.66476 17.4212 8.80701C17.4893 8.94926 17.5156 9.1079 17.4971 9.26451C17.4786 9.42111 17.416 9.56926 17.3166 9.69172L9.06664 18.1917C9.00475 18.2632 8.92042 18.3114 8.82749 18.3286C8.73455 18.3458 8.63854 18.3309 8.5552 18.2863C8.47186 18.2417 8.40615 18.1701 8.36886 18.0833C8.33157 17.9965 8.32491 17.8995 8.34997 17.8084L9.94997 12.7917C9.99715 12.6655 10.013 12.5296 9.99615 12.3959C9.9793 12.2621 9.93026 12.1345 9.85323 12.0239C9.77621 11.9132 9.6735 11.823 9.55391 11.7608C9.43433 11.6985 9.30144 11.6663 9.16664 11.6667H3.33331Z" stroke="#F8FAFC" stroke-width="2" stroke-linecap="round" stroke-linejoin="round"/>
</svg>
